<svg width="300" height="300" viewBox="0 0 300 300" fill="none" xmlns="http://www.w3.org/2000/svg">
<rect width="300" height="300" rx="24" fill="#F59E0B"/>
<g clip-path="url(#clip0_2193_6)">
<path d="M50.4443 126.4H107.333C114.411 126.4 121.161 128.932 126.108 133.385C131.048 137.831 133.777 143.813 133.777 150V252.4C133.777 258.587 131.048 264.57 126.108 269.016C121.161 273.468 114.41 276 107.333 276H50.4443C43.3669 276 36.616 273.468 31.6689 269.016C26.729 264.57 24.0001 258.587 24 252.4V150C24 143.813 26.7289 137.831 31.6689 133.385C36.616 128.932 43.3668 126.4 50.4443 126.4ZM192.667 203.2H249.556C256.633 203.2 263.384 205.732 268.331 210.185C273.271 214.631 276 220.613 276 226.8V252.4C276 258.587 273.271 264.57 268.331 269.016C263.384 273.468 256.633 276 249.556 276H192.667C185.59 276 178.839 273.468 173.892 269.016C168.952 264.57 166.223 258.587 166.223 252.4V226.8C166.223 220.613 168.952 214.631 173.892 210.185C178.839 205.732 185.59 203.2 192.667 203.2ZM192.667 24H249.556C256.633 24 263.384 26.5321 268.331 30.9844C273.271 35.4304 276 41.4127 276 47.5996V150C276 156.187 273.271 162.169 268.331 166.615C263.384 171.068 256.633 173.6 249.556 173.6H192.667C185.589 173.6 178.839 171.068 173.892 166.615C168.952 162.169 166.223 156.187 166.223 150V47.5996C166.223 41.4127 168.952 35.4304 173.892 30.9844C178.839 26.5322 185.59 24 192.667 24ZM50.4443 24H107.333C114.41 24 121.161 26.5322 126.108 30.9844C131.048 35.4304 133.777 41.4127 133.777 47.5996V86C133.777 92.187 131.048 98.1691 126.108 102.615C121.161 107.068 114.411 109.6 107.333 109.6H50.4443C43.3668 109.6 36.616 107.068 31.6689 102.615C26.7289 98.1692 24 92.187 24 86V47.5996C24.0001 41.4127 26.729 35.4304 31.6689 30.9844C36.616 26.5321 43.3669 24 50.4443 24Z" fill="black" stroke="#FFF1F1" stroke-width="4"/>
</g>
<defs>
<clipPath id="clip0_2193_6">
<rect width="256" height="256" fill="white" transform="translate(22 22)"/>
</clipPath>
</defs>
</svg>
